<svg width="480.00000000000006" height="674" xmlns="http://www.w3.org/2000/svg">

 <g>
  <title>Layer 1</title>
  <path transform="rotate(-15 1.99997 98.5)" stroke-width="3" stroke="#ffffff" id="svg_35" d="m33.94089,134.19573c0,1.09885 -0.89604,1.98911 -2.00205,1.98911l-12.82057,0c-1.106,0 -2.00204,-0.89026 -2.00204,-1.98911l0,-27.06169c0,-1.09876 0.89604,-1.98911 2.00204,-1.98911l12.82057,0c1.10601,0 2.00205,0.89035 2.00205,1.98911l0,27.06169zm-47.4653,0c0,1.09885 -0.89622,1.98911 -2.00205,1.98911l-12.82074,0c-1.10583,0 -2.00205,-0.89026 -2.00205,-1.98911l0,-27.06169c0,-1.09876 0.89622,-1.98911 2.00205,-1.98911l12.82074,0c1.10583,0 2.00205,0.89035 2.00205,1.98911l0,27.06169zm15.48899,-73.38057c-23.19947,0 -42.03206,18.54165 -42.32128,41.52083l7.34476,0c0.23817,-18.99254 15.80382,-34.31667 34.97653,-34.31667c19.17269,0 34.73837,15.32412 34.97374,34.31667l7.34459,0c-0.28628,-22.97918 -19.12441,-41.52083 -42.31834,-41.52083l0.00001,0zm-42.26174,62.56998l7.21149,0l0,-21.09145l-7.21149,0l0,21.09145zm77.17596,-21.09428l0,21.09153l7.47786,0l0,-21.09153l-7.47786,0z" fill="#ffffff"/>
  <path transform="rotate(-115 375 111.5)" stroke-width="3" stroke="#ffffff" id="svg_44" d="m406.94089,147.19573c0,1.09885 -0.89605,1.98911 -2.00205,1.98911l-12.82057,0c-1.106,0 -2.00204,-0.89026 -2.00204,-1.98911l0,-27.06169c0,-1.09876 0.89604,-1.98911 2.00204,-1.98911l12.82057,0c1.106,0 2.00205,0.89035 2.00205,1.98911l0,27.06169zm-47.4653,0c0,1.09885 -0.89622,1.98911 -2.00205,1.98911l-12.82074,0c-1.10583,0 -2.00205,-0.89026 -2.00205,-1.98911l0,-27.06169c0,-1.09876 0.89622,-1.98911 2.00205,-1.98911l12.82074,0c1.10583,0 2.00205,0.89035 2.00205,1.98911l0,27.06169zm15.48899,-73.38057c-23.19947,0 -42.03207,18.54165 -42.32128,41.52084l7.34475,0c0.23817,-18.99255 15.80383,-34.31667 34.97653,-34.31667c19.17269,0 34.73837,15.32412 34.97374,34.31667l7.34459,0c-0.28628,-22.97919 -19.12441,-41.52084 -42.31834,-41.52084l0.00001,0zm-42.26175,62.56998l7.21149,0l0,-21.09145l-7.21149,0l0,21.09145zm77.17596,-21.09429l0,21.09154l7.47786,0l0,-21.09154l-7.47786,0z" fill="#ffffff"/>
  <path transform="rotate(-138 48 216.5)" stroke-width="3" stroke="#ffffff" id="svg_45" d="m79.94089,252.19573c0,1.09885 -0.89605,1.98911 -2.00205,1.98911l-12.82057,0c-1.106,0 -2.00204,-0.89026 -2.00204,-1.98911l0,-27.06169c0,-1.09876 0.89604,-1.98911 2.00204,-1.98911l12.82057,0c1.106,0 2.00205,0.89035 2.00205,1.98911l0,27.06169zm-47.4653,0c0,1.09885 -0.89622,1.98911 -2.00205,1.98911l-12.82074,0c-1.10583,0 -2.00205,-0.89026 -2.00205,-1.98911l0,-27.06169c0,-1.09876 0.89622,-1.98911 2.00205,-1.98911l12.82074,0c1.10583,0 2.00205,0.89035 2.00205,1.98911l0,27.06169zm15.48899,-73.38057c-23.19947,0 -42.03207,18.54165 -42.32128,41.52084l7.34475,0c0.23817,-18.99255 15.80383,-34.31667 34.97653,-34.31667c19.17269,0 34.73837,15.32412 34.97374,34.31667l7.34459,0c-0.28628,-22.97919 -19.12441,-41.52084 -42.31834,-41.52084l0.00001,0zm-42.26175,62.56998l7.21149,0l0,-21.09145l-7.21149,0l0,21.09145zm77.17596,-21.09429l0,21.09154l7.47786,0l0,-21.09154l-7.47786,0z" fill="#ffffff"/>
  <path transform="rotate(54 108 337.5)" stroke-width="3" stroke="#ffffff" id="svg_46" d="m139.94089,373.19573c0,1.09885 -0.89605,1.98911 -2.00205,1.98911l-12.82057,0c-1.106,0 -2.00204,-0.89026 -2.00204,-1.98911l0,-27.06169c0,-1.09876 0.89604,-1.98911 2.00204,-1.98911l12.82057,0c1.106,0 2.00205,0.89035 2.00205,1.98911l0,27.06169zm-47.4653,0c0,1.09885 -0.89622,1.98911 -2.00205,1.98911l-12.82074,0c-1.10583,0 -2.00205,-0.89026 -2.00205,-1.98911l0,-27.06169c0,-1.09876 0.89622,-1.98911 2.00205,-1.98911l12.82074,0c1.10583,0 2.00205,0.89035 2.00205,1.98911l0,27.06169zm15.48899,-73.38057c-23.19947,0 -42.03207,18.54165 -42.32128,41.52084l7.34475,0c0.23817,-18.99255 15.80383,-34.31667 34.97653,-34.31667c19.17269,0 34.73837,15.32412 34.97374,34.31667l7.34459,0c-0.28628,-22.97919 -19.12441,-41.52084 -42.31834,-41.52084l0.00001,0zm-42.26175,62.56998l7.21149,0l0,-21.09145l-7.21149,0l0,21.09145zm77.17596,-21.09429l0,21.09154l7.47786,0l0,-21.09154l-7.47786,0z" fill="#ffffff"/>
  <path transform="rotate(119 159 434.5)" stroke-width="3" stroke="#ffffff" id="svg_47" d="m190.94089,470.19573c0,1.09885 -0.89605,1.98911 -2.00205,1.98911l-12.82057,0c-1.106,0 -2.00204,-0.89026 -2.00204,-1.98911l0,-27.06169c0,-1.09876 0.89604,-1.98911 2.00204,-1.98911l12.82057,0c1.106,0 2.00205,0.89035 2.00205,1.98911l0,27.06169zm-47.4653,0c0,1.09885 -0.89622,1.98911 -2.00205,1.98911l-12.82074,0c-1.10583,0 -2.00205,-0.89026 -2.00205,-1.98911l0,-27.06169c0,-1.09876 0.89622,-1.98911 2.00205,-1.98911l12.82074,0c1.10583,0 2.00205,0.89035 2.00205,1.98911l0,27.06169zm15.48899,-73.38057c-23.19947,0 -42.03207,18.54165 -42.32128,41.52084l7.34475,0c0.23817,-18.99255 15.80383,-34.31667 34.97653,-34.31667c19.17269,0 34.73837,15.32412 34.97374,34.31667l7.34459,0c-0.28628,-22.97919 -19.12441,-41.52084 -42.31834,-41.52084l0.00001,0zm-42.26175,62.56998l7.21149,0l0,-21.09145l-7.21149,0l0,21.09145zm77.17596,-21.09429l0,21.09154l7.47786,0l0,-21.09154l-7.47786,0z" fill="#ffffff"/>
  <path transform="rotate(-81 349 362.5)" stroke-width="3" stroke="#ffffff" id="svg_48" d="m380.94089,398.19573c0,1.09885 -0.89605,1.98911 -2.00205,1.98911l-12.82057,0c-1.106,0 -2.00204,-0.89026 -2.00204,-1.98911l0,-27.06169c0,-1.09876 0.89604,-1.98911 2.00204,-1.98911l12.82057,0c1.106,0 2.00205,0.89035 2.00205,1.98911l0,27.06169zm-47.4653,0c0,1.09885 -0.89622,1.98911 -2.00205,1.98911l-12.82074,0c-1.10583,0 -2.00205,-0.89026 -2.00205,-1.98911l0,-27.06169c0,-1.09876 0.89622,-1.98911 2.00205,-1.98911l12.82074,0c1.10583,0 2.00205,0.89035 2.00205,1.98911l0,27.06169zm15.48899,-73.38057c-23.19947,0 -42.03207,18.54165 -42.32128,41.52084l7.34475,0c0.23817,-18.99255 15.80383,-34.31667 34.97653,-34.31667c19.17269,0 34.73837,15.32412 34.97374,34.31667l7.34459,0c-0.28628,-22.97919 -19.12441,-41.52084 -42.31834,-41.52084l0.00001,0zm-42.26175,62.56998l7.21149,0l0,-21.09145l-7.21149,0l0,21.09145zm77.17596,-21.09429l0,21.09154l7.47786,0l0,-21.09154l-7.47786,0z" fill="#ffffff"/>
  <path transform="rotate(-140 7.99998 480.5)" stroke-width="3" stroke="#ffffff" id="svg_49" d="m39.94089,516.19573c0,1.09885 -0.89605,1.98911 -2.00205,1.98911l-12.82057,0c-1.106,0 -2.00204,-0.89026 -2.00204,-1.98911l0,-27.06169c0,-1.09876 0.89604,-1.98911 2.00204,-1.98911l12.82057,0c1.106,0 2.00205,0.89035 2.00205,1.98911l0,27.06169zm-47.4653,0c0,1.09885 -0.89622,1.98911 -2.00205,1.98911l-12.82074,0c-1.10583,0 -2.00205,-0.89026 -2.00205,-1.98911l0,-27.06169c0,-1.09876 0.89622,-1.98911 2.00205,-1.98911l12.82074,0c1.10583,0 2.00205,0.89035 2.00205,1.98911l0,27.06169zm15.48899,-73.38057c-23.19947,0 -42.03207,18.54165 -42.32128,41.52084l7.34475,0c0.23817,-18.99255 15.80383,-34.31667 34.97653,-34.31667c19.17269,0 34.73837,15.32412 34.97374,34.31667l7.34459,0c-0.28628,-22.97919 -19.12441,-41.52084 -42.31834,-41.52084l0.00001,0zm-42.26175,62.56998l7.21149,0l0,-21.09145l-7.21149,0l0,21.09145zm77.17596,-21.09429l0,21.09154l7.47786,0l0,-21.09154l-7.47786,0z" fill="#ffffff"/>
  <path transform="rotate(40 13 311.5)" stroke-width="3" stroke="#ffffff" id="svg_50" d="m44.94089,347.19573c0,1.09885 -0.89605,1.98911 -2.00205,1.98911l-12.82057,0c-1.106,0 -2.00204,-0.89026 -2.00204,-1.98911l0,-27.06169c0,-1.09876 0.89604,-1.98911 2.00204,-1.98911l12.82057,0c1.106,0 2.00205,0.89035 2.00205,1.98911l0,27.06169zm-47.4653,0c0,1.09885 -0.89622,1.98911 -2.00205,1.98911l-12.82074,0c-1.10583,0 -2.00205,-0.89026 -2.00205,-1.98911l0,-27.06169c0,-1.09876 0.89622,-1.98911 2.00205,-1.98911l12.82074,0c1.10583,0 2.00205,0.89035 2.00205,1.98911l0,27.06169zm15.48899,-73.38057c-23.19947,0 -42.03207,18.54165 -42.32128,41.52084l7.34475,0c0.23817,-18.99255 15.80383,-34.31667 34.97653,-34.31667c19.17269,0 34.73837,15.32412 34.97374,34.31667l7.34459,0c-0.28628,-22.97919 -19.12441,-41.52084 -42.31834,-41.52084l0.00001,0zm-42.26175,62.56998l7.21149,0l0,-21.09145l-7.21149,0l0,21.09145zm77.17596,-21.09429l0,21.09154l7.47786,0l0,-21.09154l-7.47786,0z" fill="#ffffff"/>
  <path transform="rotate(127 141 135.5)" stroke-width="3" stroke="#ffffff" id="svg_51" d="m172.94089,171.19573c0,1.09885 -0.89605,1.98911 -2.00205,1.98911l-12.82057,0c-1.106,0 -2.00204,-0.89026 -2.00204,-1.98911l0,-27.06169c0,-1.09876 0.89604,-1.98911 2.00204,-1.98911l12.82057,0c1.106,0 2.00205,0.89035 2.00205,1.98911l0,27.06169zm-47.4653,0c0,1.09885 -0.89622,1.98911 -2.00205,1.98911l-12.82074,0c-1.10583,0 -2.00205,-0.89026 -2.00205,-1.98911l0,-27.06169c0,-1.09876 0.89622,-1.98911 2.00205,-1.98911l12.82074,0c1.10583,0 2.00205,0.89035 2.00205,1.98911l0,27.06169zm15.48899,-73.38057c-23.19947,0 -42.03207,18.54165 -42.32128,41.52084l7.34475,0c0.23817,-18.99255 15.80383,-34.31667 34.97653,-34.31667c19.17269,0 34.73837,15.32412 34.97374,34.31667l7.34459,0c-0.28628,-22.97919 -19.12441,-41.52084 -42.31834,-41.52084l0.00001,0zm-42.26175,62.56998l7.21149,0l0,-21.09145l-7.21149,0l0,21.09145zm77.17596,-21.09429l0,21.09154l7.47786,0l0,-21.09154l-7.47786,0z" fill="#ffffff"/>
  <path transform="rotate(50 460 20.5)" stroke-width="3" stroke="#ffffff" id="svg_52" d="m491.94089,56.19573c0,1.09885 -0.89605,1.98911 -2.00205,1.98911l-12.82057,0c-1.106,0 -2.00204,-0.89026 -2.00204,-1.98911l0,-27.06169c0,-1.09876 0.89604,-1.98911 2.00204,-1.98911l12.82057,0c1.106,0 2.00205,0.89035 2.00205,1.98911l0,27.06169zm-47.4653,0c0,1.09885 -0.89622,1.98911 -2.00205,1.98911l-12.82074,0c-1.10583,0 -2.00205,-0.89026 -2.00205,-1.98911l0,-27.06169c0,-1.09876 0.89622,-1.98911 2.00205,-1.98911l12.82074,0c1.10583,0 2.00205,0.89035 2.00205,1.98911l0,27.06169zm15.48899,-73.38057c-23.19947,0 -42.03207,18.54165 -42.32128,41.52084l7.34475,0c0.23817,-18.99255 15.80383,-34.31667 34.97653,-34.31667c19.17269,0 34.73837,15.32412 34.97374,34.31667l7.34459,0c-0.28628,-22.97919 -19.12441,-41.52084 -42.31834,-41.52084l0.00001,0zm-42.26175,62.56998l7.21149,0l0,-21.09145l-7.21149,0l0,21.09145zm77.17596,-21.09429l0,21.09154l7.47786,0l0,-21.09154l-7.47786,0z" fill="#ffffff"/>
  <path transform="rotate(-12 258 106.5)" stroke-width="3" stroke="#ffffff" id="svg_53" d="m289.94089,142.19573c0,1.09885 -0.89605,1.98911 -2.00205,1.98911l-12.82057,0c-1.106,0 -2.00204,-0.89026 -2.00204,-1.98911l0,-27.06169c0,-1.09876 0.89604,-1.98911 2.00204,-1.98911l12.82057,0c1.106,0 2.00205,0.89035 2.00205,1.98911l0,27.06169zm-47.4653,0c0,1.09885 -0.89622,1.98911 -2.00205,1.98911l-12.82074,0c-1.10583,0 -2.00205,-0.89026 -2.00205,-1.98911l0,-27.06169c0,-1.09876 0.89622,-1.98911 2.00205,-1.98911l12.82074,0c1.10583,0 2.00205,0.89035 2.00205,1.98911l0,27.06169zm15.48899,-73.38057c-23.19947,0 -42.03207,18.54165 -42.32128,41.52084l7.34475,0c0.23817,-18.99255 15.80383,-34.31667 34.97653,-34.31667c19.17269,0 34.73837,15.32412 34.97374,34.31667l7.34459,0c-0.28628,-22.97919 -19.12441,-41.52084 -42.31834,-41.52084l0.00001,0zm-42.26175,62.56998l7.21149,0l0,-21.09145l-7.21149,0l0,21.09145zm77.17596,-21.09429l0,21.09154l7.47786,0l0,-21.09154l-7.47786,0z" fill="#ffffff"/>
  <path transform="rotate(-15 382 250.5)" stroke-width="3" stroke="#ffffff" id="svg_54" d="m413.94089,286.19573c0,1.09885 -0.89605,1.98911 -2.00205,1.98911l-12.82057,0c-1.106,0 -2.00204,-0.89026 -2.00204,-1.98911l0,-27.06169c0,-1.09876 0.89604,-1.98911 2.00204,-1.98911l12.82057,0c1.106,0 2.00205,0.89035 2.00205,1.98911l0,27.06169zm-47.4653,0c0,1.09885 -0.89622,1.98911 -2.00205,1.98911l-12.82074,0c-1.10583,0 -2.00205,-0.89026 -2.00205,-1.98911l0,-27.06169c0,-1.09876 0.89622,-1.98911 2.00205,-1.98911l12.82074,0c1.10583,0 2.00205,0.89035 2.00205,1.98911l0,27.06169zm15.48899,-73.38057c-23.19947,0 -42.03207,18.54165 -42.32128,41.52084l7.34475,0c0.23817,-18.99255 15.80383,-34.31667 34.97653,-34.31667c19.17269,0 34.73837,15.32412 34.97374,34.31667l7.34459,0c-0.28628,-22.97919 -19.12441,-41.52084 -42.31834,-41.52084l0.00001,0zm-42.26175,62.56998l7.21149,0l0,-21.09145l-7.21149,0l0,21.09145zm77.17596,-21.09429l0,21.09154l7.47786,0l0,-21.09154l-7.47786,0z" fill="#ffffff"/>
  <path transform="rotate(-79 452 178.5)" stroke-width="3" stroke="#ffffff" id="svg_55" d="m483.94089,214.19573c0,1.09885 -0.89605,1.98911 -2.00205,1.98911l-12.82057,0c-1.106,0 -2.00204,-0.89026 -2.00204,-1.98911l0,-27.06169c0,-1.09876 0.89604,-1.98911 2.00204,-1.98911l12.82057,0c1.106,0 2.00205,0.89035 2.00205,1.98911l0,27.06169zm-47.4653,0c0,1.09885 -0.89622,1.98911 -2.00205,1.98911l-12.82074,0c-1.10583,0 -2.00205,-0.89026 -2.00205,-1.98911l0,-27.06169c0,-1.09876 0.89622,-1.98911 2.00205,-1.98911l12.82074,0c1.10583,0 2.00205,0.89035 2.00205,1.98911l0,27.06169zm15.48899,-73.38057c-23.19947,0 -42.03207,18.54165 -42.32128,41.52084l7.34475,0c0.23817,-18.99255 15.80383,-34.31667 34.97653,-34.31667c19.17269,0 34.73837,15.32412 34.97374,34.31667l7.34459,0c-0.28628,-22.97919 -19.12441,-41.52084 -42.31834,-41.52084l0.00001,0zm-42.26175,62.56998l7.21149,0l0,-21.09145l-7.21149,0l0,21.09145zm77.17596,-21.09429l0,21.09154l7.47786,0l0,-21.09154l-7.47786,0z" fill="#ffffff"/>
  <path transform="rotate(61 279 224.5)" stroke-width="3" stroke="#ffffff" id="svg_56" d="m310.94089,260.19573c0,1.09885 -0.89605,1.98911 -2.00205,1.98911l-12.82057,0c-1.106,0 -2.00204,-0.89026 -2.00204,-1.98911l0,-27.06169c0,-1.09876 0.89604,-1.98911 2.00204,-1.98911l12.82057,0c1.106,0 2.00205,0.89035 2.00205,1.98911l0,27.06169zm-47.4653,0c0,1.09885 -0.89622,1.98911 -2.00205,1.98911l-12.82074,0c-1.10583,0 -2.00205,-0.89026 -2.00205,-1.98911l0,-27.06169c0,-1.09876 0.89622,-1.98911 2.00205,-1.98911l12.82074,0c1.10583,0 2.00205,0.89035 2.00205,1.98911l0,27.06169zm15.48899,-73.38057c-23.19947,0 -42.03207,18.54165 -42.32128,41.52084l7.34475,0c0.23817,-18.99255 15.80383,-34.31667 34.97653,-34.31667c19.17269,0 34.73837,15.32412 34.97374,34.31667l7.34459,0c-0.28628,-22.97919 -19.12441,-41.52084 -42.31834,-41.52084l0.00001,0zm-42.26175,62.56998l7.21149,0l0,-21.09145l-7.21149,0l0,21.09145zm77.17596,-21.09429l0,21.09154l7.47786,0l0,-21.09154l-7.47786,0z" fill="#ffffff"/>
  <path transform="rotate(19 299 647.5)" stroke-width="3" stroke="#ffffff" id="svg_57" d="m330.94089,683.19573c0,1.09885 -0.89605,1.98911 -2.00205,1.98911l-12.82057,0c-1.106,0 -2.00204,-0.89026 -2.00204,-1.98911l0,-27.06169c0,-1.09876 0.89604,-1.98911 2.00204,-1.98911l12.82057,0c1.106,0 2.00205,0.89035 2.00205,1.98911l0,27.06169zm-47.4653,0c0,1.09885 -0.89622,1.98911 -2.00205,1.98911l-12.82074,0c-1.10583,0 -2.00205,-0.89026 -2.00205,-1.98911l0,-27.06169c0,-1.09876 0.89622,-1.98911 2.00205,-1.98911l12.82074,0c1.10583,0 2.00205,0.89035 2.00205,1.98911l0,27.06169zm15.48899,-73.38057c-23.19947,0 -42.03207,18.54165 -42.32128,41.52084l7.34475,0c0.23817,-18.99255 15.80383,-34.31667 34.97653,-34.31667c19.17269,0 34.73837,15.32412 34.97374,34.31667l7.34459,0c-0.28628,-22.97919 -19.12441,-41.52084 -42.31834,-41.52084l0.00001,0zm-42.26175,62.56998l7.21149,0l0,-21.09145l-7.21149,0l0,21.09145zm77.17596,-21.09429l0,21.09154l7.47786,0l0,-21.09154l-7.47786,0z" fill="#ffffff"/>
  <path transform="rotate(-15 357 472.5)" stroke-width="3" stroke="#ffffff" id="svg_58" d="m388.94089,508.19573c0,1.09885 -0.89605,1.98911 -2.00205,1.98911l-12.82057,0c-1.106,0 -2.00204,-0.89026 -2.00204,-1.98911l0,-27.06169c0,-1.09876 0.89604,-1.98911 2.00204,-1.98911l12.82057,0c1.106,0 2.00205,0.89035 2.00205,1.98911l0,27.06169zm-47.4653,0c0,1.09885 -0.89622,1.98911 -2.00205,1.98911l-12.82074,0c-1.10583,0 -2.00205,-0.89026 -2.00205,-1.98911l0,-27.06169c0,-1.09876 0.89622,-1.98911 2.00205,-1.98911l12.82074,0c1.10583,0 2.00205,0.89035 2.00205,1.98911l0,27.06169zm15.48899,-73.38057c-23.19947,0 -42.03207,18.54165 -42.32128,41.52084l7.34475,0c0.23817,-18.99255 15.80383,-34.31667 34.97653,-34.31667c19.17269,0 34.73837,15.32412 34.97374,34.31667l7.34459,0c-0.28628,-22.97919 -19.12441,-41.52084 -42.31834,-41.52084l0.00001,0zm-42.26175,62.56998l7.21149,0l0,-21.09145l-7.21149,0l0,21.09145zm77.17596,-21.09429l0,21.09154l7.47786,0l0,-21.09154l-7.47786,0z" fill="#ffffff"/>
  <path transform="rotate(-60 371 577.5)" stroke-width="3" stroke="#ffffff" id="svg_59" d="m402.94089,613.19573c0,1.09885 -0.89605,1.98911 -2.00205,1.98911l-12.82057,0c-1.106,0 -2.00204,-0.89026 -2.00204,-1.98911l0,-27.06169c0,-1.09876 0.89604,-1.98911 2.00204,-1.98911l12.82057,0c1.106,0 2.00205,0.89035 2.00205,1.98911l0,27.06169zm-47.4653,0c0,1.09885 -0.89622,1.98911 -2.00205,1.98911l-12.82074,0c-1.10583,0 -2.00205,-0.89026 -2.00205,-1.98911l0,-27.06169c0,-1.09876 0.89622,-1.98911 2.00205,-1.98911l12.82074,0c1.10583,0 2.00205,0.89035 2.00205,1.98911l0,27.06169zm15.48899,-73.38057c-23.19947,0 -42.03207,18.54165 -42.32128,41.52084l7.34475,0c0.23817,-18.99255 15.80383,-34.31667 34.97653,-34.31667c19.17269,0 34.73837,15.32412 34.97374,34.31667l7.34459,0c-0.28628,-22.97919 -19.12441,-41.52084 -42.31834,-41.52084l0.00001,0zm-42.26175,62.56998l7.21149,0l0,-21.09145l-7.21149,0l0,21.09145zm77.17596,-21.09429l0,21.09154l7.47786,0l0,-21.09154l-7.47786,0z" fill="#ffffff"/>
  <path transform="rotate(-15 174 255.5)" stroke-width="3" stroke="#ffffff" id="svg_60" d="m205.94089,291.19573c0,1.09885 -0.89605,1.98911 -2.00205,1.98911l-12.82057,0c-1.106,0 -2.00204,-0.89026 -2.00204,-1.98911l0,-27.06169c0,-1.09876 0.89604,-1.98911 2.00204,-1.98911l12.82057,0c1.106,0 2.00205,0.89035 2.00205,1.98911l0,27.06169zm-47.4653,0c0,1.09885 -0.89622,1.98911 -2.00205,1.98911l-12.82074,0c-1.10583,0 -2.00205,-0.89026 -2.00205,-1.98911l0,-27.06169c0,-1.09876 0.89622,-1.98911 2.00205,-1.98911l12.82074,0c1.10583,0 2.00205,0.89035 2.00205,1.98911l0,27.06169zm15.48899,-73.38057c-23.19947,0 -42.03207,18.54165 -42.32128,41.52084l7.34475,0c0.23817,-18.99255 15.80383,-34.31667 34.97653,-34.31667c19.17269,0 34.73837,15.32412 34.97374,34.31667l7.34459,0c-0.28628,-22.97919 -19.12441,-41.52084 -42.31834,-41.52084l0.00001,0zm-42.26175,62.56998l7.21149,0l0,-21.09145l-7.21149,0l0,21.09145zm77.17596,-21.09429l0,21.09154l7.47786,0l0,-21.09154l-7.47786,0z" fill="#ffffff"/>
  <path transform="rotate(-15 1.99997 597.5)" stroke-width="3" stroke="#ffffff" id="svg_61" d="m33.94089,633.19573c0,1.09885 -0.89605,1.98911 -2.00205,1.98911l-12.82057,0c-1.106,0 -2.00204,-0.89026 -2.00204,-1.98911l0,-27.06169c0,-1.09876 0.89604,-1.98911 2.00204,-1.98911l12.82057,0c1.106,0 2.00205,0.89035 2.00205,1.98911l0,27.06169zm-47.4653,0c0,1.09885 -0.89622,1.98911 -2.00205,1.98911l-12.82074,0c-1.10583,0 -2.00205,-0.89026 -2.00205,-1.98911l0,-27.06169c0,-1.09876 0.89622,-1.98911 2.00205,-1.98911l12.82074,0c1.10583,0 2.00205,0.89035 2.00205,1.98911l0,27.06169zm15.48899,-73.38057c-23.19947,0 -42.03207,18.54165 -42.32128,41.52084l7.34475,0c0.23817,-18.99255 15.80383,-34.31667 34.97653,-34.31667c19.17269,0 34.73837,15.32412 34.97374,34.31667l7.34459,0c-0.28628,-22.97919 -19.12441,-41.52084 -42.31834,-41.52084l0.00001,0zm-42.26175,62.56998l7.21149,0l0,-21.09145l-7.21149,0l0,21.09145zm77.17596,-21.09429l0,21.09154l7.47786,0l0,-21.09154l-7.47786,0z" fill="#ffffff"/>
  <path transform="rotate(-15 114 529.5)" stroke-width="3" stroke="#ffffff" id="svg_62" d="m145.94089,565.19573c0,1.09885 -0.89605,1.98911 -2.00205,1.98911l-12.82057,0c-1.106,0 -2.00204,-0.89026 -2.00204,-1.98911l0,-27.06169c0,-1.09876 0.89604,-1.98911 2.00204,-1.98911l12.82057,0c1.106,0 2.00205,0.89035 2.00205,1.98911l0,27.06169zm-47.4653,0c0,1.09885 -0.89622,1.98911 -2.00205,1.98911l-12.82074,0c-1.10583,0 -2.00205,-0.89026 -2.00205,-1.98911l0,-27.06169c0,-1.09876 0.89622,-1.98911 2.00205,-1.98911l12.82074,0c1.10583,0 2.00205,0.89035 2.00205,1.98911l0,27.06169zm15.48899,-73.38057c-23.19947,0 -42.03207,18.54165 -42.32128,41.52084l7.34475,0c0.23817,-18.99255 15.80383,-34.31667 34.97653,-34.31667c19.17269,0 34.73837,15.32412 34.97374,34.31667l7.34459,0c-0.28628,-22.97919 -19.12441,-41.52084 -42.31834,-41.52084l0.00001,0zm-42.26175,62.56998l7.21149,0l0,-21.09145l-7.21149,0l0,21.09145zm77.17596,-21.09429l0,21.09154l7.47786,0l0,-21.09154l-7.47786,0z" fill="#ffffff"/>
  <path transform="rotate(30 270 -2.5)" stroke-width="3" stroke="#ffffff" id="svg_63" d="m301.94089,33.19573c0,1.09885 -0.89605,1.98911 -2.00205,1.98911l-12.82057,0c-1.106,0 -2.00204,-0.89026 -2.00204,-1.98911l0,-27.06169c0,-1.09876 0.89604,-1.98911 2.00204,-1.98911l12.82057,0c1.106,0 2.00205,0.89035 2.00205,1.98911l0,27.06169zm-47.4653,0c0,1.09885 -0.89622,1.98911 -2.00205,1.98911l-12.82074,0c-1.10583,0 -2.00205,-0.89026 -2.00205,-1.98911l0,-27.06169c0,-1.09876 0.89622,-1.98911 2.00205,-1.98911l12.82074,0c1.10583,0 2.00205,0.89035 2.00205,1.98911l0,27.06169zm15.48899,-73.38057c-23.19947,0 -42.03207,18.54165 -42.32128,41.52084l7.34475,0c0.23817,-18.99255 15.80383,-34.31667 34.97653,-34.31667c19.17269,0 34.73837,15.32412 34.97374,34.31667l7.34459,0c-0.28628,-22.97919 -19.12441,-41.52084 -42.31834,-41.52084l0.00001,0zm-42.26175,62.56998l7.21149,0l0,-21.09145l-7.21149,0l0,21.09145zm77.17596,-21.09429l0,21.09154l7.47786,0l0,-21.09154l-7.47786,0z" fill="#ffffff"/>
  <path transform="rotate(-94 212 593.5)" stroke-width="3" stroke="#ffffff" id="svg_64" d="m243.94089,629.19573c0,1.09885 -0.89605,1.98911 -2.00205,1.98911l-12.82057,0c-1.106,0 -2.00204,-0.89026 -2.00204,-1.98911l0,-27.06169c0,-1.09876 0.89604,-1.98911 2.00204,-1.98911l12.82057,0c1.106,0 2.00205,0.89035 2.00205,1.98911l0,27.06169zm-47.4653,0c0,1.09885 -0.89622,1.98911 -2.00205,1.98911l-12.82074,0c-1.10583,0 -2.00205,-0.89026 -2.00205,-1.98911l0,-27.06169c0,-1.09876 0.89622,-1.98911 2.00205,-1.98911l12.82074,0c1.10583,0 2.00205,0.89035 2.00205,1.98911l0,27.06169zm15.48899,-73.38057c-23.19947,0 -42.03207,18.54165 -42.32128,41.52084l7.34475,0c0.23817,-18.99255 15.80383,-34.31667 34.97653,-34.31667c19.17269,0 34.73837,15.32412 34.97374,34.31667l7.34459,0c-0.28628,-22.97919 -19.12441,-41.52084 -42.31834,-41.52084l0.00001,0zm-42.26175,62.56998l7.21149,0l0,-21.09145l-7.21149,0l0,21.09145zm77.17596,-21.09429l0,21.09154l7.47786,0l0,-21.09154l-7.47786,0z" fill="#ffffff"/>
  <path transform="rotate(-15 118 664.5)" stroke-width="3" stroke="#ffffff" id="svg_65" d="m149.94089,700.19573c0,1.09885 -0.89605,1.98911 -2.00205,1.98911l-12.82057,0c-1.106,0 -2.00204,-0.89026 -2.00204,-1.98911l0,-27.06169c0,-1.09876 0.89604,-1.98911 2.00204,-1.98911l12.82057,0c1.106,0 2.00205,0.89035 2.00205,1.98911l0,27.06169zm-47.4653,0c0,1.09885 -0.89622,1.98911 -2.00205,1.98911l-12.82074,0c-1.10583,0 -2.00205,-0.89026 -2.00205,-1.98911l0,-27.06169c0,-1.09876 0.89622,-1.98911 2.00205,-1.98911l12.82074,0c1.10583,0 2.00205,0.89035 2.00205,1.98911l0,27.06169zm15.48899,-73.38057c-23.19947,0 -42.03207,18.54165 -42.32128,41.52084l7.34475,0c0.23817,-18.99255 15.80383,-34.31667 34.97653,-34.31667c19.17269,0 34.73837,15.32412 34.97374,34.31667l7.34459,0c-0.28628,-22.97919 -19.12441,-41.52084 -42.31834,-41.52084l0.00001,0zm-42.26175,62.56998l7.21149,0l0,-21.09145l-7.21149,0l0,21.09145zm77.17596,-21.09429l0,21.09154l7.47786,0l0,-21.09154l-7.47786,0z" fill="#ffffff"/>
  <path transform="rotate(-140 244 498.5)" stroke-width="3" stroke="#ffffff" id="svg_66" d="m275.94089,534.19573c0,1.09885 -0.89605,1.98911 -2.00205,1.98911l-12.82057,0c-1.106,0 -2.00204,-0.89026 -2.00204,-1.98911l0,-27.06169c0,-1.09876 0.89604,-1.98911 2.00204,-1.98911l12.82057,0c1.106,0 2.00205,0.89035 2.00205,1.98911l0,27.06169zm-47.4653,0c0,1.09885 -0.89622,1.98911 -2.00205,1.98911l-12.82074,0c-1.10583,0 -2.00205,-0.89026 -2.00205,-1.98911l0,-27.06169c0,-1.09876 0.89622,-1.98911 2.00205,-1.98911l12.82074,0c1.10583,0 2.00205,0.89035 2.00205,1.98911l0,27.06169zm15.48899,-73.38057c-23.19947,0 -42.03207,18.54165 -42.32128,41.52084l7.34475,0c0.23817,-18.99255 15.80383,-34.31667 34.97653,-34.31667c19.17269,0 34.73837,15.32412 34.97374,34.31667l7.34459,0c-0.28628,-22.97919 -19.12441,-41.52084 -42.31834,-41.52084l0.00001,0zm-42.26175,62.56998l7.21149,0l0,-21.09145l-7.21149,0l0,21.09145zm77.17596,-21.09429l0,21.09154l7.47786,0l0,-21.09154l-7.47786,0z" fill="#ffffff"/>
  <path transform="rotate(-54 457 649.5)" stroke-width="3" stroke="#ffffff" id="svg_67" d="m488.94089,685.19573c0,1.09885 -0.89605,1.98911 -2.00205,1.98911l-12.82057,0c-1.106,0 -2.00204,-0.89026 -2.00204,-1.98911l0,-27.06169c0,-1.09876 0.89604,-1.98911 2.00204,-1.98911l12.82057,0c1.106,0 2.00205,0.89035 2.00205,1.98911l0,27.06169zm-47.4653,0c0,1.09885 -0.89622,1.98911 -2.00205,1.98911l-12.82074,0c-1.10583,0 -2.00205,-0.89026 -2.00205,-1.98911l0,-27.06169c0,-1.09876 0.89622,-1.98911 2.00205,-1.98911l12.82074,0c1.10583,0 2.00205,0.89035 2.00205,1.98911l0,27.06169zm15.48899,-73.38057c-23.19947,0 -42.03207,18.54165 -42.32128,41.52084l7.34475,0c0.23817,-18.99255 15.80383,-34.31667 34.97653,-34.31667c19.17269,0 34.73837,15.32412 34.97374,34.31667l7.34459,0c-0.28628,-22.97919 -19.12441,-41.52084 -42.31834,-41.52084l0.00001,0zm-42.26175,62.56998l7.21149,0l0,-21.09145l-7.21149,0l0,21.09145zm77.17596,-21.09429l0,21.09154l7.47786,0l0,-21.09154l-7.47786,0z" fill="#ffffff"/>
  <path transform="rotate(26 104 9.5)" stroke-width="3" stroke="#ffffff" id="svg_68" d="m135.94089,45.19573c0,1.09885 -0.89605,1.98911 -2.00205,1.98911l-12.82057,0c-1.106,0 -2.00204,-0.89026 -2.00204,-1.98911l0,-27.06169c0,-1.09876 0.89604,-1.98911 2.00204,-1.98911l12.82057,0c1.106,0 2.00205,0.89035 2.00205,1.98911l0,27.06169zm-47.4653,0c0,1.09885 -0.89622,1.98911 -2.00205,1.98911l-12.82074,0c-1.10583,0 -2.00205,-0.89026 -2.00205,-1.98911l0,-27.06169c0,-1.09876 0.89622,-1.98911 2.00205,-1.98911l12.82074,0c1.10583,0 2.00205,0.89035 2.00205,1.98911l0,27.06169zm15.48899,-73.38057c-23.19947,0 -42.03207,18.54165 -42.32128,41.52084l7.34475,0c0.23817,-18.99255 15.80383,-34.31667 34.97653,-34.31667c19.17269,0 34.73837,15.32412 34.97374,34.31667l7.34459,0c-0.28628,-22.97919 -19.12441,-41.52084 -42.31834,-41.52084l0.00001,0zm-42.26175,62.56998l7.21149,0l0,-21.09145l-7.21149,0l0,21.09145zm77.17596,-21.09429l0,21.09154l7.47786,0l0,-21.09154l-7.47786,0z" fill="#ffffff"/>
  <path transform="rotate(24 243 354.5)" stroke-width="3" stroke="#ffffff" id="svg_69" d="m274.94089,390.19573c0,1.09885 -0.89605,1.98911 -2.00205,1.98911l-12.82057,0c-1.106,0 -2.00204,-0.89026 -2.00204,-1.98911l0,-27.06169c0,-1.09876 0.89604,-1.98911 2.00204,-1.98911l12.82057,0c1.106,0 2.00205,0.89035 2.00205,1.98911l0,27.06169zm-47.4653,0c0,1.09885 -0.89622,1.98911 -2.00205,1.98911l-12.82074,0c-1.10583,0 -2.00205,-0.89026 -2.00205,-1.98911l0,-27.06169c0,-1.09876 0.89622,-1.98911 2.00205,-1.98911l12.82074,0c1.10583,0 2.00205,0.89035 2.00205,1.98911l0,27.06169zm15.48899,-73.38057c-23.19947,0 -42.03207,18.54165 -42.32128,41.52084l7.34475,0c0.23817,-18.99255 15.80383,-34.31667 34.97653,-34.31667c19.17269,0 34.73837,15.32412 34.97374,34.31667l7.34459,0c-0.28628,-22.97919 -19.12441,-41.52084 -42.31834,-41.52084l0.00001,0zm-42.26175,62.56998l7.21149,0l0,-21.09145l-7.21149,0l0,21.09145zm77.17596,-21.09429l0,21.09154l7.47786,0l0,-21.09154l-7.47786,0z" fill="#ffffff"/>
  <path transform="rotate(130 468 365.5)" stroke-width="3" stroke="#ffffff" id="svg_70" d="m499.94089,401.19573c0,1.09885 -0.89605,1.98911 -2.00205,1.98911l-12.82057,0c-1.106,0 -2.00204,-0.89026 -2.00204,-1.98911l0,-27.06169c0,-1.09876 0.89604,-1.98911 2.00204,-1.98911l12.82057,0c1.106,0 2.00205,0.89035 2.00205,1.98911l0,27.06169zm-47.4653,0c0,1.09885 -0.89622,1.98911 -2.00205,1.98911l-12.82074,0c-1.10583,0 -2.00205,-0.89026 -2.00205,-1.98911l0,-27.06169c0,-1.09876 0.89622,-1.98911 2.00205,-1.98911l12.82074,0c1.10583,0 2.00205,0.89035 2.00205,1.98911l0,27.06169zm15.48899,-73.38057c-23.19947,0 -42.03207,18.54165 -42.32128,41.52084l7.34475,0c0.23817,-18.99255 15.80383,-34.31667 34.97653,-34.31667c19.17269,0 34.73837,15.32412 34.97374,34.31667l7.34459,0c-0.28628,-22.97919 -19.12441,-41.52084 -42.31834,-41.52084l0.00001,0zm-42.26175,62.56998l7.21149,0l0,-21.09145l-7.21149,0l0,21.09145zm77.17596,-21.09429l0,21.09154l7.47786,0l0,-21.09154l-7.47786,0z" fill="#ffffff"/>
  <path transform="rotate(30 474 509.5)" stroke-width="3" stroke="#ffffff" id="svg_71" d="m505.94089,545.19573c0,1.09885 -0.89605,1.98911 -2.00205,1.98911l-12.82057,0c-1.106,0 -2.00204,-0.89026 -2.00204,-1.98911l0,-27.06169c0,-1.09876 0.89604,-1.98911 2.00204,-1.98911l12.82057,0c1.106,0 2.00205,0.89035 2.00205,1.98911l0,27.06169zm-47.4653,0c0,1.09885 -0.89622,1.98911 -2.00205,1.98911l-12.82074,0c-1.10583,0 -2.00205,-0.89026 -2.00205,-1.98911l0,-27.06169c0,-1.09876 0.89622,-1.98911 2.00205,-1.98911l12.82074,0c1.10583,0 2.00205,0.89035 2.00205,1.98911l0,27.06169zm15.48899,-73.38057c-23.19947,0 -42.03207,18.54165 -42.32128,41.52084l7.34475,0c0.23817,-18.99255 15.80383,-34.31667 34.97653,-34.31667c19.17269,0 34.73837,15.32412 34.97374,34.31667l7.34459,0c-0.28628,-22.97919 -19.12441,-41.52084 -42.31834,-41.52084l0.00001,0zm-42.26175,62.56998l7.21149,0l0,-21.09145l-7.21149,0l0,21.09145zm77.17596,-21.09429l0,21.09154l7.47786,0l0,-21.09154l-7.47786,0z" fill="#ffffff"/>
 </g>
</svg>